<mxfile host="app.diagrams.net" modified="2022-07-11T08:57:25.532Z" agent="5.0 (Windows NT 10.0; Win64; x64) AppleWebKit/537.36 (KHTML, like Gecko) Chrome/102.0.5005.124 Safari/537.36 Edg/102.0.1245.44" etag="xTdWuxczVdT8FLhAfPPF" version="20.0.4" type="github" pages="2">
  <diagram id="A-x_8YrMaDOvej47Gt83" name="第 1 页">
    <mxGraphModel dx="1012" dy="647" grid="1" gridSize="10" guides="1" tooltips="1" connect="1" arrows="1" fold="1" page="1" pageScale="1" pageWidth="827" pageHeight="1169" math="0" shadow="0">
      <root>
        <mxCell id="0" />
        <mxCell id="1" parent="0" />
        <mxCell id="K6Vgfyeeu3dYdL6-tawh-3" value="" style="edgeStyle=orthogonalEdgeStyle;rounded=0;orthogonalLoop=1;jettySize=auto;html=1;" edge="1" parent="1" source="K6Vgfyeeu3dYdL6-tawh-1" target="K6Vgfyeeu3dYdL6-tawh-2">
          <mxGeometry relative="1" as="geometry" />
        </mxCell>
        <mxCell id="K6Vgfyeeu3dYdL6-tawh-5" style="edgeStyle=orthogonalEdgeStyle;rounded=0;orthogonalLoop=1;jettySize=auto;html=1;exitX=0.5;exitY=0;exitDx=0;exitDy=0;" edge="1" parent="1" source="K6Vgfyeeu3dYdL6-tawh-1" target="K6Vgfyeeu3dYdL6-tawh-4">
          <mxGeometry relative="1" as="geometry" />
        </mxCell>
        <mxCell id="K6Vgfyeeu3dYdL6-tawh-1" value="" style="rounded=0;whiteSpace=wrap;html=1;" vertex="1" parent="1">
          <mxGeometry x="210" y="290" width="120" height="60" as="geometry" />
        </mxCell>
        <mxCell id="K6Vgfyeeu3dYdL6-tawh-2" value="" style="rounded=0;whiteSpace=wrap;html=1;" vertex="1" parent="1">
          <mxGeometry x="550" y="300" width="120" height="60" as="geometry" />
        </mxCell>
        <mxCell id="K6Vgfyeeu3dYdL6-tawh-4" value="" style="rounded=0;whiteSpace=wrap;html=1;" vertex="1" parent="1">
          <mxGeometry x="430" y="10" width="120" height="60" as="geometry" />
        </mxCell>
        <mxCell id="K6Vgfyeeu3dYdL6-tawh-6" value="Object" style="html=1;" vertex="1" parent="1">
          <mxGeometry x="360" y="290" width="110" height="50" as="geometry" />
        </mxCell>
      </root>
    </mxGraphModel>
  </diagram>
  <diagram id="0vkYDj9giuwEnG7uaVzP" name="第 2 页">
    <mxGraphModel dx="1012" dy="647" grid="1" gridSize="10" guides="1" tooltips="1" connect="1" arrows="1" fold="1" page="1" pageScale="1" pageWidth="827" pageHeight="1169" math="0" shadow="0">
      <root>
        <mxCell id="0" />
        <mxCell id="1" parent="0" />
        <mxCell id="w0WvBJZVUAPeVO9x9RIz-1" value="" style="shape=process;whiteSpace=wrap;html=1;backgroundOutline=1;" vertex="1" parent="1">
          <mxGeometry x="350" y="300" width="120" height="60" as="geometry" />
        </mxCell>
      </root>
    </mxGraphModel>
  </diagram>
</mxfile>
